<?xml version="1.0" standalone="no"?>
<!DOCTYPE svg PUBLIC "-//W3C//DTD SVG 20010904//EN"
 "http://www.w3.org/TR/2001/REC-SVG-20010904/DTD/svg10.dtd">
<svg version="1.0" xmlns="http://www.w3.org/2000/svg"
 width="425.000000pt" height="425.000000pt" viewBox="0 0 425.000000 425.000000"
 preserveAspectRatio="xMidYMid meet">
<metadata>
Created by potrace 1.11, written by Peter Selinger 2001-2013
</metadata>
<g transform="translate(0.000000,425.000000) scale(0.100000,-0.100000)"
fill="#000000" stroke="none">
<path d="M222 3227 l-22 -23 0 -1075 0 -1076 23 -21 c22 -21 32 -22 203 -22
178 0 181 0 203 24 l23 24 -4 675 c-2 372 0 668 3 659 4 -9 129 -318 279 -687
150 -369 275 -676 277 -683 4 -10 46 -12 181 -10 l177 3 280 690 280 690 3
-674 c2 -610 4 -676 19 -693 14 -16 35 -18 203 -18 168 0 189 2 203 18 16 17
17 108 17 1099 l0 1080 -23 21 c-23 21 -30 22 -279 22 -218 0 -257 -2 -262
-15 -65 -171 -610 -1532 -615 -1538 -4 -4 -147 342 -317 770 l-310 778 -260 3
-260 2 -22 -23z"/>
<path d="M3277 3042 c-15 -16 -17 -46 -17 -215 l0 -197 -143 0 c-193 0 -187 6
-187 -191 0 -195 -6 -189 188 -189 l142 0 0 -603 c0 -572 1 -605 18 -620 16
-15 45 -17 199 -17 175 0 180 1 201 23 l22 23 0 597 0 597 153 0 c136 0 156 2
170 18 14 16 17 43 17 174 0 137 -2 157 -18 171 -16 14 -43 17 -170 17 l-152
0 0 198 c0 180 -2 200 -18 215 -16 15 -45 17 -204 17 -166 0 -187 -2 -201 -18z"/>
</g>
</svg>
